<svg width="495" height="185" viewBox="0 0 495 185" fill="none" xmlns="http://www.w3.org/2000/svg" role="img" aria-label="Most Used Languages">
  <style>
    .title { font: 600 20px 'Segoe UI', Ubuntu, Helvetica, Arial, sans-serif; fill: #70a5fd; }
    .lg    { font: 400 13px 'Segoe UI', Ubuntu, Helvetica, Arial, sans-serif; fill: #a9b1d6; }
  </style>

  <rect x="0.5" y="0.5" rx="10" width="494" height="184" fill="#1a1b27" stroke="#292e42"/>
  <text x="25" y="40" class="title">Языки — что чаще всего в коде</text>

  <g>
    <clipPath id="round"><rect x="25" y="58" width="445" height="12" rx="6"/></clipPath>
    <g clip-path="url(#round)">
      <rect x="25.00" y="58" width="180.22" height="12" fill="#3776AB"/>
      <rect x="205.22" y="58" width="66.31" height="12" fill="#E34C26"/>
      <rect x="271.53" y="58" width="51.62" height="12" fill="#00B4AB"/>
      <rect x="323.15" y="58" width="45.39" height="12" fill="#8E6FBF"/>
      <rect x="368.54" y="58" width="30.70" height="12" fill="#F1E05A"/>
      <rect x="399.24" y="58" width="28.93" height="12" fill="#3178C6"/>
      <rect x="428.17" y="58" width="13.35" height="12" fill="#66BB6A"/>
      <rect x="441.52" y="58" width="12.90" height="12" fill="#A97BFF"/>
      <rect x="454.42" y="58" width="15.58" height="12" fill="#565f89"/>
    </g>
  </g>

  <g>
    <circle cx="31" cy="100" r="6" fill="#3776AB"/><text x="43" y="105" class="lg">Python 40.5%</text>
    <circle cx="181" cy="100" r="6" fill="#E34C26"/><text x="193" y="105" class="lg">HTML 14.9%</text>
    <circle cx="331" cy="100" r="6" fill="#00B4AB"/><text x="343" y="105" class="lg">Dart 11.6%</text>

    <circle cx="31" cy="126" r="6" fill="#8E6FBF"/><text x="43" y="131" class="lg">CSS 10.2%</text>
    <circle cx="181" cy="126" r="6" fill="#F1E05A"/><text x="193" y="131" class="lg">JavaScript 6.9%</text>
    <circle cx="331" cy="126" r="6" fill="#3178C6"/><text x="343" y="131" class="lg">TypeScript 6.5%</text>

    <circle cx="31" cy="152" r="6" fill="#66BB6A"/><text x="43" y="157" class="lg">C# 3.0%</text>
    <circle cx="181" cy="152" r="6" fill="#A97BFF"/><text x="193" y="157" class="lg">Kotlin 2.9%</text>
    <circle cx="331" cy="152" r="6" fill="#565f89"/><text x="343" y="157" class="lg">Другое 3.5%</text>
  </g>
</svg>
